<svg t="1717072525317" class="icon" viewBox="0 0 1024 1024" version="1.1" xmlns="http://www.w3.org/2000/svg" p-id="4515" width="128" height="128"><path d="M640 576c0 70.4-57.6 128-128 128s-128-57.6-128-128 57.6-128 128-128 128 57.6 128 128z m320-224v480c0 35.2-28.8 64-64 64H128c-35.2 0-64-28.8-64-64V352c0-35.2 28.8-64 64-64h167.2L376 192h256l80.8 96H896c35.2 0 64 28.8 64 64zM704 576c0-106.4-85.6-192-192-192S320 469.6 320 576s85.6 192 192 192 192-85.6 192-192z" p-id="4516" data-spm-anchor-id="a313x.search_index.0.i5.26af3a81UmhKjd" class="selected" fill="#8a8a8a"></path></svg>