<svg t="1717124902468" class="icon" viewBox="0 0 1024 1024" version="1.1" xmlns="http://www.w3.org/2000/svg" p-id="12382" width="128" height="128"><path d="M880 167c44.183 0 80 35.817 80 80v530c0 44.183-35.817 80-80 80H144c-44.183 0-80-35.817-80-80V247c0-44.183 35.817-80 80-80h736zM628.132 427.392l-170.63 213.98a16.77 16.77 0 0 1-26.076 0.084l-76.721-94.58a16.77 16.77 0 0 0-26.245 0.252L195.142 716.833a16.77 16.77 0 0 0 12.997 27.084h606.723A16.77 16.77 0 0 0 829.2 718.51L655.634 429.237a16.77 16.77 0 0 0-27.502-1.845z m-286.676-146.56c-46.308 0-83.848 37.54-83.848 83.847 0 46.308 37.54 83.848 83.848 83.848s83.848-37.54 83.848-83.848-37.54-83.848-83.848-83.848z" fill="#707070" p-id="12383" data-spm-anchor-id="a313x.search_index.0.i23.2e293a81UpLUxZ" class="selected"></path></svg>