<?xml version="1.0" standalone="no"?><!DOCTYPE svg PUBLIC "-//W3C//DTD SVG 1.1//EN" "http://www.w3.org/Graphics/SVG/1.1/DTD/svg11.dtd"><svg t="1760579181727" class="icon" viewBox="0 0 1024 1024" version="1.1" xmlns="http://www.w3.org/2000/svg" p-id="4773" xmlns:xlink="http://www.w3.org/1999/xlink" width="200" height="200"><path d="M896.576 533.184c-19.52 0-35.36 15.84-35.36 35.36v308.992a11.808 11.808 0 0 1-11.776 11.776H146.464a11.808 11.808 0 0 1-11.776-11.776V178.464c0-6.496 5.28-11.776 11.776-11.776H472.64a35.36 35.36 0 0 0 0-70.688H146.464A82.56 82.56 0 0 0 64 178.464v699.072A82.56 82.56 0 0 0 146.464 960h702.976a82.56 82.56 0 0 0 82.464-82.464v-308.992c0-19.52-15.808-35.36-35.328-35.36z m27.264-424.48a31.52 31.52 0 0 0-20.384-10.016 30.56 30.56 0 0 0-10.24-0.256h-254.208c-45.248 0-45.248 70.176 0 70.176h177.056L433.152 562.976c-31.52 32.448 18.048 82.112 49.6 49.6L863.968 220.032v173.504c0 45.248 70.176 45.248 70.176 0V133.536c0-10.912-4.096-19.2-10.24-24.832z" fill="#8a8a8a" p-id="4774"></path></svg>