<?xml version="1.0" standalone="no"?><!DOCTYPE svg PUBLIC "-//W3C//DTD SVG 1.1//EN" "http://www.w3.org/Graphics/SVG/1.1/DTD/svg11.dtd"><svg t="1757398345426" class="icon" viewBox="0 0 1024 1024" version="1.1" xmlns="http://www.w3.org/2000/svg" p-id="8277" xmlns:xlink="http://www.w3.org/1999/xlink" width="64" height="64"><path d="M85.333333 790.741333a42.666667 42.666667 0 0 1 42.666667-42.666666h768a42.666667 42.666667 0 1 1 0 85.333333H128a42.666667 42.666667 0 0 1-42.666667-42.666667z" fill="#555555" p-id="8278"></path><path d="M85.333333 790.741333a42.666667 42.666667 0 0 1 42.666667-42.666666h341.333333a42.666667 42.666667 0 1 1 0 85.333333H128a42.666667 42.666667 0 0 1-42.666667-42.666667zM448.042667 201.258667q28.245333 30.592 28.245333 73.984 0 43.434667-28.672 74.24-28.458667 30.805333-70.997333 30.805333-42.368 0-70.613334-30.378667-28.202667-30.592-28.202666-74.026666 0-43.392 28.416-74.24Q334.933333 170.666667 377.258667 170.666667q42.538667 0 70.826666 30.592z m267.349333-19.242667L378.965333 641.237333H294.272l336.426667-459.221333h84.693333zM403.968 309.674667q10.496-13.44 10.496-33.152 0-19.626667-11.093333-33.152-11.136-13.44-27.392-13.44-16.042667 0-26.538667 13.44-10.496 13.482667-10.496 33.152 0 19.712 11.136 33.152 11.093333 13.482667 27.178667 13.482666 16.213333 0 26.709333-13.482666z m304.810667 157.866666q28.458667 30.378667 28.458666 73.813334 0 43.392-28.672 74.410666-28.672 30.805333-70.997333 30.805334-42.368 0-70.613333-30.592-28.202667-30.592-28.202667-73.984 0-43.434667 28.416-74.24 28.672-30.805333 71.04-30.805334 42.325333 0 70.570667 30.592z m-42.581334 109.738667q10.496-13.482667 10.496-33.152 0-19.882667-11.349333-33.365333-11.093333-13.482667-27.136-13.482667t-26.538667 13.482667q-10.496 13.482667-10.496 33.365333 0 19.626667 11.136 33.152 11.093333 13.226667 27.178667 13.226667 16.213333 0 26.709333-13.226667z" fill="#555555" p-id="8279"></path></svg>