<svg t="1730109899823" class="icon" viewBox="0 0 1024 1024" version="1.1" xmlns="http://www.w3.org/2000/svg" p-id="4264" width="64" height="64"><path d="M871.424 454.656V361.984c0-53.76-43.52-97.28-97.28-97.28h-191.488c-5.632 0-11.264-2.048-15.36-5.632L446.976 150.016c-17.92-16.384-40.96-25.088-65.024-25.088H154.112c-53.76 0-97.28 43.52-97.28 97.28v580.096c0 53.76 43.52 97.28 97.28 97.28h604.672c38.4 0 73.216-22.528 89.088-57.856l111.616-249.856c5.632-12.288 8.192-25.6 8.192-39.424-0.512-53.76-43.008-96.768-96.256-97.792z m-706.048 337.92L276.992 542.72c3.584-8.192 11.776-13.312 20.992-13.312H870.4c12.8 0 22.528 10.24 22.528 22.528 0 3.072-0.512 6.144-2.048 9.216l-111.616 249.856c-3.584 8.192-11.776 13.312-20.992 13.312H186.368c-12.8 0-22.528-10.24-22.528-22.528-0.512-3.072 0.512-6.144 1.536-9.216z m631.808-337.92H297.472c-38.4 0-73.216 22.528-89.088 57.856l-77.312 174.08V222.208c0-12.288 10.24-22.528 22.528-22.528h227.84c5.632 0 11.264 2.048 15.36 5.632l120.832 109.056c17.92 16.384 40.96 25.088 65.024 25.088h191.488c12.8 0 22.528 10.24 22.528 22.528v92.672z" p-id="4265" fill="#555555"></path></svg>