<svg t="1717124727475" class="icon" viewBox="0 0 1024 1024" version="1.1" xmlns="http://www.w3.org/2000/svg" p-id="10912" width="128" height="128"><path d="M750.933333 532.48c-27.306667 0-54.613333 10.24-75.093333 30.72-27.306667 27.306667-47.786667 54.613333-58.026667 75.093333-3.413333 6.826667-10.24 23.893333-17.066666 23.893334-30.72 0-92.16-58.026667-133.12-102.4-44.373333-44.373333-102.4-102.4-102.4-133.12 3.413333-3.413333 20.48-17.066667 27.306666-20.48 20.48-17.066667 47.786667-30.72 75.093334-58.026667 20.48-20.48 47.786667-61.44 17.066666-136.533333-34.133333-85.333333-160.426667-208.213333-238.933333-208.213334S75.093333 116.053333 13.653333 211.626667l-13.653333 13.653333v20.48c0 133.12 129.706667 389.12 256 522.24 129.706667 129.706667 389.12 256 522.24 256h20.48l17.066667-3.413333c95.573333-61.44 208.213333-153.6 208.213333-232.106667 0-92.16-160.426667-256-273.066667-256z m23.893334 413.013333c-112.64-3.413333-348.16-122.88-460.8-235.52-112.64-112.64-232.106667-348.16-235.52-460.8 75.093333-109.226667 143.36-170.666667 163.84-170.666666 30.72 0 136.533333 92.16 170.666666 160.426666 10.24 23.893333 10.24 40.96 0 51.2-23.893333 23.893333-44.373333 34.133333-61.44 47.786667-30.72 20.48-61.44 34.133333-61.44 81.92 0 61.44 61.44 129.706667 126.293334 187.733333 58.026667 61.44 122.88 126.293333 187.733333 126.293334 44.373333 0 61.44-30.72 81.92-61.44 10.24-20.48 27.306667-44.373333 47.786667-61.44 3.413333-3.413333 10.24-6.826667 20.48-6.826667 68.266667 0 194.56 133.12 194.56 177.493333-3.413333 27.306667-61.44 88.746667-174.08 163.84z" fill="#707070" p-id="10913" data-spm-anchor-id="a313x.search_index.0.i18.2e293a81UpLUxZ" class="selected"></path></svg>