<?xml version="1.0" standalone="no"?><!DOCTYPE svg PUBLIC "-//W3C//DTD SVG 1.1//EN" "http://www.w3.org/Graphics/SVG/1.1/DTD/svg11.dtd"><svg t="1749477182022" class="icon" viewBox="0 0 1024 1024" version="1.1" xmlns="http://www.w3.org/2000/svg" p-id="5087" xmlns:xlink="http://www.w3.org/1999/xlink" width="48" height="48"><path d="M853.333333 170.666667a85.333333 85.333333 0 0 1 85.333334 85.333333v512a85.333333 85.333333 0 0 1-85.333334 85.333333H170.666667a85.333333 85.333333 0 0 1-85.333334-85.333333V256a85.333333 85.333333 0 0 1 85.333334-85.333333h682.666666z m0 64H170.666667a21.333333 21.333333 0 0 0-21.333334 21.333333v512a21.333333 21.333333 0 0 0 21.333334 21.333333h682.666666a21.333333 21.333333 0 0 0 21.333334-21.333333V256a21.333333 21.333333 0 0 0-21.333334-21.333333z" fill="#323847" p-id="5088"></path><path d="M272.448 365.653333a32 32 0 0 1 41.962667-9.514666l2.602666 1.642666 176.64 123.648a32 32 0 0 0 33.877334 1.770667l2.816-1.770667 176.64-123.648a32 32 0 0 1 39.146666 50.56l-2.453333 1.877334-176.64 123.648a96 96 0 0 1-105.898667 2.773333l-4.202666-2.773333-176.64-123.648a32 32 0 0 1-7.850667-44.586667z" fill="#323847" p-id="5089"></path></svg>