<?xml version="1.0" standalone="no"?><!DOCTYPE svg PUBLIC "-//W3C//DTD SVG 1.1//EN" "http://www.w3.org/Graphics/SVG/1.1/DTD/svg11.dtd"><svg t="1748919776357" class="icon" viewBox="0 0 1024 1024" version="1.1" xmlns="http://www.w3.org/2000/svg" p-id="4665" width="64" height="64" xmlns:xlink="http://www.w3.org/1999/xlink"><path d="M194.901 214.699l-68.266-68.267a33.997 33.997 0 1 0-48.128 48.128l44.032 44.373-44.374 44.032a33.997 33.997 0 0 0 0 48.128l44.374 44.374-44.032 44.032a33.997 33.997 0 0 0 0 48.128L122.539 512l-44.032 44.032a33.997 33.997 0 0 0 0 48.128l44.032 44.373-44.032 44.032a33.997 33.997 0 0 0 0 48.128l44.032 44.374-44.032 44.032a33.997 33.997 0 0 0 0 48.128c6.485 6.826 15.018 10.24 23.893 10.24s17.408-3.414 24.235-9.899l68.266-68.267a33.997 33.997 0 0 0 0-48.128L150.528 716.8l44.032-44.032a33.997 33.997 0 0 0 0-48.128l-44.032-44.373 44.032-44.032a33.997 33.997 0 0 0 0-48.128l-44.032-44.374 44.032-44.032a33.997 33.997 0 0 0 0-48.128L150.528 307.2l44.032-44.032c13.653-13.312 13.653-35.157 0.341-48.47z m750.934 68.266l-44.374-44.032 44.032-44.032a33.997 33.997 0 1 0-48.128-48.128L829.1 215.04a33.997 33.997 0 0 0 0 48.128l44.373 44.032-44.032 44.032a33.997 33.997 0 0 0 0 48.128l44.032 44.373-44.032 44.032a33.997 33.997 0 0 0 0 48.128l44.032 44.374-44.032 44.032a33.997 33.997 0 0 0 0 48.128l44.032 44.373-44.032 44.032a33.997 33.997 0 0 0 0 48.128l68.267 68.267c6.485 6.826 15.018 10.24 23.893 10.24s17.408-3.414 24.235-9.899a33.997 33.997 0 0 0 0-48.128l-44.374-44.373 44.032-44.032a33.997 33.997 0 0 0 0-48.128l-44.032-44.374 44.032-44.032a33.997 33.997 0 0 0 0-48.128L901.461 512l44.032-44.032a33.997 33.997 0 0 0 0-48.128l-44.032-44.373 44.032-44.032c13.654-13.312 13.654-35.158 0.342-48.47zM716.8 68.267H307.2c-18.773 0-34.133 15.36-34.133 34.133v819.2c0 18.773 15.36 34.133 34.133 34.133h409.6c18.773 0 34.133-15.36 34.133-34.133V102.4c0-18.773-15.36-34.133-34.133-34.133z m-34.133 819.2H341.333V136.533h341.334v750.934z" p-id="4666" data-spm-anchor-id="a313x.search_index.0.i0.78273a81yYbnEK" class="selected" fill="#707070"></path></svg>