<?xml version="1.0" standalone="no"?><!DOCTYPE svg PUBLIC "-//W3C//DTD SVG 1.1//EN" "http://www.w3.org/Graphics/SVG/1.1/DTD/svg11.dtd"><svg t="1703747103208" class="icon" viewBox="0 0 1024 1024" version="1.1" xmlns="http://www.w3.org/2000/svg" p-id="6166" xmlns:xlink="http://www.w3.org/1999/xlink" width="200" height="200"><path d="M606.176 163.72c70.295-70.294 184.265-70.294 254.559 0 70.294 70.295 70.294 184.265 0 254.56l-91.925 91.924-67.882-67.883 91.925-91.924c32.804-32.804 32.804-85.99 0-118.794s-85.99-32.804-118.794 0L490.21 415.451c-30.411 30.411-32.63 78.34-6.655 111.306l-68.106 68.105c-63.336-70.674-61.043-179.372 6.879-247.293L606.176 163.72z m-350.53 350.532l67.882 67.882-91.925 91.925c-32.804 32.804-32.804 85.99 0 118.794s85.99 32.804 118.794 0l183.848-183.848c30.411-30.411 32.63-78.34 6.654-111.306l68.107-68.105c63.335 70.674 61.042 179.372-6.879 247.293L418.279 860.735c-70.294 70.294-184.264 70.294-254.558 0-70.295-70.294-70.295-184.264 0-254.559l91.924-91.924z" fill="#555555" p-id="6167"></path></svg>