<svg t="1749547987954" class="icon" viewBox="0 0 1024 1024" version="1.1" xmlns="http://www.w3.org/2000/svg" p-id="10015" width="64" height="64"><path d="M512 621.696L361.152 470.869l30.165-30.186L512 561.365l120.683-120.682 30.165 30.165L512 621.696z m150.848-150.827l-30.165-30.186a170.667 170.667 0 1 0-241.366 0l-30.144 30.144c-83.306-83.307-83.306-218.39 0-301.696 83.307-83.307 218.39-83.307 301.696 0 83.307 83.306 83.307 218.389 0 301.696zM512 362.667a42.667 42.667 0 1 1 0-85.334 42.667 42.667 0 0 1 0 85.334z m-134.187 365.29a21.333 21.333 0 1 1 30.144-30.165l110.635 110.613 339.072-339.072H768v-42.666h106.539a63.936 63.936 0 0 1 64.128 63.808V874.88a64 64 0 0 1-64.064 63.787H149.397a63.915 63.915 0 0 1-64.064-63.808V490.453a63.808 63.808 0 0 1 64.128-63.786H256v42.666H149.461A21.141 21.141 0 0 0 128 490.475v302.208L328.043 592.64a21.205 21.205 0 0 1 30.058 0.128c8.32 8.32 8.192 21.973 0.107 30.037L130.475 850.56a21.333 21.333 0 0 1-2.475 2.133v22.187c0 11.67 9.536 21.141 21.397 21.141h396.438L377.792 727.98zM874.581 896A21.333 21.333 0 0 0 896 874.859V491.05a21.973 21.973 0 0 1-1.984 2.261l-345.259 345.28 54.187 54.187a22.264 22.264 0 0 1 2.667 3.221h269.013z" fill="#555555" p-id="10016"></path></svg>