
<svg t="1711533342197" class="icon" viewBox="0 0 1024 1024" version="1.1" xmlns="http://www.w3.org/2000/svg" p-id="1510" xmlns:xlink="http://www.w3.org/1999/xlink" width="200" height="200"><path d="M310.4 374.4h147.2l28.8 99.2h96L438.4 64h-99.2L185.6 473.6h92.8l32-99.2z m67.2-208c3.2-9.6 6.4-22.4 6.4-32 0 16 3.2 25.6 6.4 35.2l48 140.8h-108.8l48-144zM966.4 739.2c-19.2-19.2-41.6-28.8-70.4-32 25.6-6.4 44.8-19.2 60.8-35.2 16-16 25.6-35.2 25.6-57.6 0-28.8-12.8-54.4-35.2-70.4-25.6-16-57.6-25.6-102.4-25.6h-147.2V928h150.4c44.8 0 80-9.6 105.6-32 25.6-22.4 38.4-51.2 38.4-89.6 0-28.8-9.6-48-25.6-67.2z m-182.4-156.8h35.2c41.6 0 64 16 64 48 0 16-6.4 32-16 41.6-9.6 9.6-25.6 12.8-44.8 12.8h-38.4v-102.4z m102.4 265.6c-12.8 9.6-28.8 16-51.2 16h-51.2v-115.2h51.2c22.4 0 38.4 6.4 51.2 16 12.8 9.6 19.2 22.4 19.2 41.6 0 16-6.4 32-19.2 41.6z" p-id="1511" fill="#555555"></path><path d="M464 620.8H124.8V316.8H32v364.8c0 19.2 12.8 32 32 32h400v134.4l204.8-166.4-204.8-166.4v105.6z" p-id="1512" fill="#555555"></path></svg>