<?xml version="1.0" standalone="no"?><!DOCTYPE svg PUBLIC "-//W3C//DTD SVG 1.1//EN" "http://www.w3.org/Graphics/SVG/1.1/DTD/svg11.dtd"><svg t="1688649428845" class="icon" viewBox="0 0 1024 1024" version="1.1" xmlns="http://www.w3.org/2000/svg" p-id="1607" xmlns:xlink="http://www.w3.org/1999/xlink" width="128" height="128"><path d="M512 73.142857a438.857143 438.857143 0 1 1 0 877.714286A438.857143 438.857143 0 0 1 512 73.142857z m0 73.142857a365.714286 365.714286 0 1 0 0 731.428572A365.714286 365.714286 0 0 0 512 146.285714z" fill="#333333" p-id="1608"></path><path d="M678.912 370.322286a36.571429 36.571429 0 0 1 45.641143 10.459428l3.510857 5.632a36.571429 36.571429 0 0 1-10.532571 45.641143L611.328 512.658286l106.057143 80.018285 4.900571 4.461715a36.571429 36.571429 0 0 1-48.859428 53.979428L528.676571 542.061714l-5.193142-4.827428a36.571429 36.571429 0 0 1 5.12-53.540572l144.676571-109.860571z m-219.428571 0a36.571429 36.571429 0 0 1 45.641142 10.459428l3.510858 5.632a36.571429 36.571429 0 0 1-10.532572 45.641143L391.899429 512.658286l106.057142 80.018285 4.900572 4.461715a36.571429 36.571429 0 0 1-48.859429 53.979428L309.248 542.061714l-5.193143-4.827428a36.571429 36.571429 0 0 1 5.12-53.540572l144.676572-109.860571z" fill="#333333" p-id="1609"></path></svg>