<svg t="1717123788385" class="icon" viewBox="0 0 1024 1024" version="1.1" xmlns="http://www.w3.org/2000/svg" p-id="4391" width="128" height="128"><path d="M918.4 0c55.168 0 100.608 42.56 105.216 96.512L1024 105.6v812.8c0 55.168-42.56 100.608-96.512 105.216L918.4 1024H105.6a105.728 105.728 0 0 1-105.216-96.512L0 918.4V105.6C0 50.368 42.56 4.992 96.512 0.384L105.6 0h812.8z m-96 580.992c-18.432 0-36.864 9.216-52.928 23.04h-2.304v-16.128h-48.32v253.12h57.472v-52.928h0.064l-2.304-29.952a62.912 62.912 0 0 0 43.712 18.432c39.04 0 78.208-36.8 78.208-101.248 0-57.472-27.52-94.336-73.6-94.336z m-338.176-43.712H435.84l-6.912 48.32-27.648 2.304v43.776h25.28v73.6c0 43.712 18.432 73.6 64.448 73.6 18.432 0 32.192-4.608 41.408-6.912l-9.216-41.408c-2.24 0-9.152 2.304-16.064 2.304-13.76 0-23.04-9.216-23.04-29.952V631.68h43.712v-46.08h-43.648v-48.32z m147.2 0h-48.256l-6.976 48.32-27.648 2.304v43.776h25.344v73.6H571.52c0 43.712 18.432 73.6 66.752 73.6 18.432 0 32.192-4.608 41.408-6.912l-9.216-41.408c-4.544 2.304-11.52 2.304-16.128 2.304-13.76 0-22.976-9.216-22.976-29.952V631.68h43.712v-46.08h-43.712v-48.32zM249.472 512H192v262.272h57.472v-126.528h2.368c11.52-11.52 18.368-16.064 32.192-16.064 13.824 0 20.672 6.848 20.672 32.192v108.096h57.6v-115.008c0-46.08-18.432-75.904-57.6-75.904-25.28 0-43.648 13.76-57.472 25.28l2.24-32.192V512z m556.8 117.376c20.672 0 29.952 16.128 29.952 48.32 0 36.736-13.888 52.864-32.256 52.864a36.48 36.48 0 0 1-27.648-11.52v-73.6h0.064c9.152-11.52 18.368-16 29.888-16z m110.912-558.912H106.88a34.56 34.56 0 0 0-34.752 29.376l-0.448 5.76V275.2h880.704V105.6a34.688 34.688 0 0 0-35.2-35.2z m-772.48 53.12a57.216 57.216 0 0 1 58.88 0 58.368 58.368 0 0 1 29.376 50.496 58.368 58.368 0 0 1-29.44 50.56 57.216 57.216 0 0 1-58.88 0 58.24 58.24 0 0 1 0-101.12z m152.256 0c17.92-10.88 40.32-10.88 58.24 0a58.496 58.496 0 1 1-87.68 50.496 57.024 57.024 0 0 1 29.44-50.56z" fill="#8a8a8a" p-id="4392" data-spm-anchor-id="a313x.search_index.0.i0.2e293a81UpLUxZ" class="selected"></path></svg>