<svg t="1690793863857" class="icon" viewBox="0 0 1024 1024" version="1.1" xmlns="http://www.w3.org/2000/svg" p-id="6430" width="200" height="200"><path d="M306.112 640c13.256 0 24 10.7456 24 24 0 13.2544-10.744 24-24 24h-82.848a8 8 0 0 0-7.4272 5.0288l-70.4 176A8 8 0 0 0 152.8656 880h718.2688a8 8 0 0 0 7.4288-10.9712l-70.4-176a8 8 0 0 0-7.4288-5.0288h-82.0032c-13.2544 0-24-10.7456-24-24 0-13.2544 10.7456-24 24-24h82.0032a56 56 0 0 1 51.9952 35.2016l70.4 176c11.4864 28.7168-2.48 61.3072-31.1968 72.7936A56 56 0 0 1 871.1344 928H152.8656c-30.928 0-56-25.072-56-56a56 56 0 0 1 4.0048-20.7984l70.4-176A56 56 0 0 1 223.2656 640zM512 96c141.3856 0 256 114.6144 256 256 0 98.792-72.7424 232.8128-218.2272 402.0592a48 48 0 0 1-4.88 4.912c-19.9952 17.408-50.3136 15.312-67.7216-4.6816C329.7232 584.9328 256 450.8368 256 352c0-141.3856 114.6144-256 256-256z m0 48c-114.8752 0-208 93.1248-208 208 0 84.08 68.9344 209.464 209.3728 370.7696C651.968 561.5376 720 436.1968 720 352c0-114.8752-93.1248-208-208-208z m0 96c61.856 0 112 50.144 112 112s-50.144 112-112 112-112-50.144-112-112 50.144-112 112-112z m0 48c-35.3456 0-64 28.6544-64 64s28.6544 64 64 64 64-28.6544 64-64-28.6544-64-64-64z" fill="#555555" p-id="6431"></path></svg>