<?xml version="1.0" standalone="no"?><!DOCTYPE svg PUBLIC "-//W3C//DTD SVG 1.1//EN" "http://www.w3.org/Graphics/SVG/1.1/DTD/svg11.dtd"><svg t="1749470962550" class="icon" viewBox="0 0 1024 1024" version="1.1" xmlns="http://www.w3.org/2000/svg" p-id="4218" xmlns:xlink="http://www.w3.org/1999/xlink" width="48" height="48"><path d="M395.55183529 332.3271528c-16.6217168-21.3707785-14.24718513-54.61421127 7.12359257-71.23592725 21.3707785-18.99624765 54.61421127-14.24718513 71.23592724 7.12359256 56.98874213 68.86139639 85.48311318 156.71904043 85.48311318 246.95121533 0 87.85764404-28.49437106 175.71528726-85.48311318 244.57668367-16.6217168 21.3707785-49.86514957 26.11984021-71.23592724 7.12359255-21.3707785-16.6217168-23.74530936-49.86514958-7.12359257-71.23592724 40.36702533-49.86514957 61.73780382-113.97748342 61.73780302-180.46434898s-21.3707785-132.97373107-61.73780302-182.83888064z m237.4530911-151.9699779c-18.99624765-21.3707785-16.6217168-54.61421127 7.12359256-73.6104581s56.98874214-16.6217168 75.98498896 7.12359256c90.2321749 111.60295258 135.34826194 256.44933875 135.34826193 401.29572408 0 142.47185451-45.11608703 287.31824065-135.34826193 398.92119326-18.99624765 23.74530936-52.23968042 26.11984021-75.98498896 7.12359255-23.74530936-16.62171679-26.11984021-52.23968042-7.12359256-73.6104581 73.61045811-92.60670576 111.60295258-213.70778174 111.60295258-332.43432771 0-121.10107681-37.99249448-242.2021528-111.60295258-334.80885854zM179.46952188 460.55182217c-14.24718513-21.3707785-11.87265427-49.86514957 7.12359256-66.48686554 18.99624765-14.24718513 49.86514957-11.87265427 64.11233469 7.12359256 26.11984021 30.86890192 40.36702533 73.61045811 40.36702533 113.97748424s-14.24718513 80.73405066-40.36702533 111.60295259c-14.24718513 18.99624765-45.11608703 23.74530936-64.11233468 7.12359256s-21.3707785-45.11608703-7.12359257-64.11233468c11.87265427-16.6217168 18.99624765-35.61796362 18.99624766-54.61421046 0-21.3707785-7.12359256-40.36702533-18.99624766-54.61421127z" p-id="4219" data-spm-anchor-id="a313x.search_index.0.i0.3ab33a818Q2Huf" class="selected" fill="#707070"></path></svg>