<?xml version="1.0" standalone="no"?><!DOCTYPE svg PUBLIC "-//W3C//DTD SVG 1.1//EN" "http://www.w3.org/Graphics/SVG/1.1/DTD/svg11.dtd"><svg class="icon" width="200px" height="200.00px" viewBox="0 0 1024 1024" version="1.1" xmlns="http://www.w3.org/2000/svg"><path fill="#8a8a8a" d="M857.390692 487.076226a24.923774 24.923774 0 0 0-24.923774 24.923774A320.531321 320.531321 0 1 1 512 191.468679a24.923774 24.923774 0 0 0 0-49.783144A370.314465 370.314465 0 1 0 882.314465 512a24.923774 24.923774 0 0 0-24.923773-24.923774zM512 0A512 512 0 1 0 1024 512 512.579623 512.579623 0 0 0 512 0z m0 972.477987A460.477987 460.477987 0 1 1 972.477987 512 460.993208 460.993208 0 0 1 512 972.477987zM464.148931 328.903648a60.989182 60.989182 0 1 0 60.989182-60.989183 61.053585 61.053585 0 0 0-60.989182 60.989183z m79.730314 0a18.741132 18.741132 0 1 1-18.741132-18.741132 18.741132 18.741132 0 0 1 18.67673 18.741132z" /></svg>