<svg t="1733396268151" class="icon" viewBox="0 0 1024 1024" version="1.1" xmlns="http://www.w3.org/2000/svg" p-id="11522" width="200" height="200"><path d="M145.0752 679.5264v-563.2l35.072-3.072c37.376-3.584 73.216-8.96 107.264-15.872 43.776-9.216 82.176-20.736 114.944-34.816 17.664-7.424 32.512-15.104 45.056-23.296 3.84-2.304 6.912-4.608 9.728-6.656l1.792-1.792h0.256l24.064-22.528 24.064 20.48c4.864 3.584 10.752 7.424 17.408 11.264 13.824 7.68 29.44 15.104 47.104 22.272 26.368 10.496 55.808 19.968 88.576 27.904 43.264 10.496 90.368 18.176 140.8 23.04l35.072 3.072v563.456l-13.824 15.104c-0.256 0.512-0.768 1.024-1.792 2.304-33.536 40.96-69.12 79.616-107.52 115.712-74.24 70.144-145.92 119.296-214.784 147.712l-14.336 5.888-13.824-6.144c-69.12-28.16-138.752-77.568-209.664-147.712a1074.5856 1074.5856 0 0 1-101.12-116.48c-0.768-1.024-1.28-1.792-1.536-2.048l-6.656-7.424z m314.112-648.704l-0.256 0.256z m-258.816 634.624c29.696 39.424 61.696 76.544 96.256 110.848 29.696 29.184 59.136 54.784 88.576 76.544 33.792 24.832 66.816 44.288 99.328 58.112 61.184-26.368 125.952-71.424 193.536-135.424a1112.832 1112.832 0 0 0 102.912-110.848c1.28-1.536 2.56-2.816 3.584-4.096l0.512-0.512V162.9184a972.288 972.288 0 0 1-136.96-23.04c-35.072-8.448-67.072-18.688-95.744-30.208-26.88-10.752-49.408-22.272-67.328-34.048-2.816 2.048-6.144 4.352-9.728 6.656-15.104 9.728-32.768 18.944-52.992 27.392-35.84 15.36-77.568 27.904-124.672 37.888-32.256 6.656-66.048 11.776-101.376 15.36v497.408l0.512 0.512c0.512 0.512 1.024 1.28 1.536 2.048 0.512 0.512 1.024 1.28 2.048 2.56z m77.056-349.696h85.248c1.792 0 3.328 0.256 5.12 0.512 1.536 0.256 3.072 0.768 4.608 1.536 1.536 0.512 3.072 1.28 4.608 2.304l3.84 3.072 3.072 3.84c1.024 1.536 1.792 3.072 2.304 4.608 0.768 1.536 1.28 3.072 1.536 4.608 0.256 1.792 0.512 3.328 0.512 5.12v256c0 1.792-0.256 3.328-0.512 5.12-0.256 1.536-0.768 3.072-1.536 4.608-0.512 1.536-1.28 3.072-2.304 4.608l-3.072 3.84-3.84 3.072c-1.536 1.024-3.072 1.792-4.608 2.304-1.536 0.768-3.072 1.28-4.608 1.536-1.792 0.256-3.328 0.512-5.12 0.512s-3.328-0.256-5.12-0.512a16.2816 16.2816 0 0 1-4.608-1.536 19.3792 19.3792 0 0 1-4.608-2.304l-3.84-3.072-3.072-3.84a19.3536 19.3536 0 0 1-2.304-4.608 16.2816 16.2816 0 0 1-1.536-4.608c-0.256-1.792-0.512-3.328-0.512-5.12v-102.4h-34.048v102.4c0 1.792-0.256 3.328-0.512 5.12-0.256 1.536-0.768 3.072-1.536 4.608-0.512 1.536-1.28 3.072-2.304 4.608l-3.072 3.84-3.84 3.072c-1.536 1.024-3.072 1.792-4.608 2.304-1.536 0.768-3.072 1.28-4.608 1.536-1.792 0.256-3.328 0.512-5.12 0.512s-3.328-0.256-5.12-0.512a16.2816 16.2816 0 0 1-4.608-1.536 19.4048 19.4048 0 0 1-4.608-2.304l-3.84-3.072-3.072-3.84a19.4048 19.4048 0 0 1-2.304-4.608 16.2816 16.2816 0 0 1-1.536-4.608c-0.256-1.792-0.512-3.328-0.512-5.12v-258.048c0.256-0.768 0.256-1.536 0.512-2.304v-0.768l0.768-3.072c0.256-0.512 0.512-1.024 0.512-1.536l0.768-1.536a19.2 19.2 0 0 1 1.792-3.072l0.256-0.512c0.768-1.024 1.536-1.792 2.56-2.816l0.256-0.512 3.84-3.072c0.512-0.256 1.024-0.768 1.536-1.024 1.024-0.512 1.792-1.024 2.816-1.28 1.024-0.512 2.048-0.768 3.328-1.28 0.512 0 1.024-0.256 1.536-0.256 1.792-0.256 3.328-0.512 5.12-0.512z m165.632 0.512c1.792-0.256 3.328-0.512 5.12-0.512h85.248c1.792 0 3.328 0.256 5.12 0.512 1.536 0.256 3.072 0.768 4.608 1.536 1.536 0.512 3.072 1.28 4.608 2.304l3.84 3.072 3.072 3.84c1.024 1.536 1.792 3.072 2.304 4.608 0.768 1.536 1.28 3.072 1.536 4.608 0.256 1.792 0.512 3.328 0.512 5.12s-0.256 3.328-0.512 5.12c-0.256 1.536-0.768 3.072-1.536 4.608-0.512 1.536-1.28 3.072-2.304 4.608l-3.072 3.84-3.84 3.072c-1.536 1.024-3.072 1.792-4.608 2.304-1.536 0.768-3.072 1.28-4.608 1.536-1.792 0.256-3.328 0.512-5.12 0.512h-59.648v76.8h59.648c1.792 0 3.328 0.256 5.12 0.512 1.536 0.256 3.072 0.768 4.608 1.536 1.536 0.512 3.072 1.28 4.608 2.304l3.84 3.072 3.072 3.84c1.024 1.536 1.792 3.072 2.304 4.608 0.768 1.536 1.28 3.072 1.536 4.608 0.256 1.792 0.512 3.328 0.512 5.12s-0.256 3.328-0.512 5.12c-0.256 1.536-0.768 3.072-1.536 4.608-0.512 1.536-1.28 3.072-2.304 4.608l-3.072 3.84-3.84 3.072c-1.536 1.024-3.072 1.792-4.608 2.304-1.536 0.768-3.072 1.28-4.608 1.536-1.792 0.256-3.328 0.512-5.12 0.512h-59.648v76.8h59.648c1.792 0 3.328 0.256 5.12 0.512 1.536 0.256 3.072 0.768 4.608 1.536 1.536 0.512 3.072 1.28 4.608 2.304l3.84 3.072 3.072 3.84c1.024 1.536 1.792 3.072 2.304 4.608 0.768 1.536 1.28 3.072 1.536 4.608 0.256 1.792 0.512 3.328 0.512 5.12s-0.256 3.328-0.512 5.12c-0.256 1.536-0.768 3.072-1.536 4.608-0.512 1.536-1.28 3.072-2.304 4.608l-3.072 3.84-3.84 3.072c-1.536 1.024-3.072 1.792-4.608 2.304-1.536 0.768-3.072 1.28-4.608 1.536-1.792 0.256-3.328 0.512-5.12 0.512h-85.248c-1.792 0-3.328-0.256-5.12-0.512-0.512 0-1.28-0.256-1.792-0.512a14.4384 14.4384 0 0 1-3.072-1.024c-1.024-0.256-2.048-1.024-3.328-1.536-0.256-0.256-0.768-0.512-1.024-0.768l-3.84-3.072a20.1984 20.1984 0 0 1-3.072-3.84l-0.768-1.536a18.9952 18.9952 0 0 1-1.792-3.072c-0.512-1.536-1.024-3.072-1.28-4.608-0.512-1.792-0.512-3.328-0.512-5.12v-256c0-1.792 0-3.328 0.512-5.12 0.256-1.536 0.768-3.072 1.28-4.608 0.768-1.536 1.536-3.072 2.56-4.608 0.768-1.28 1.792-2.56 3.072-3.84l3.84-3.072a17.92 17.92 0 0 1 4.352-2.304c1.536-0.768 3.072-1.28 4.608-1.536z m162.816 3.072c0.768-0.768 1.792-1.28 2.816-1.536 1.536-0.768 3.328-1.28 4.864-1.536 1.536-0.256 2.816-0.512 4.352-0.512h86.016c1.792 0 3.328 0.256 5.12 0.512 1.536 0.256 3.072 0.768 4.608 1.536 1.536 0.512 3.072 1.28 4.608 2.304l3.84 3.072 3.072 3.84c1.024 1.536 1.792 3.072 2.304 4.608 0.768 1.536 1.28 3.072 1.536 4.608 0.256 1.792 0.512 3.328 0.512 5.12s-0.256 3.328-0.512 5.12c-0.256 1.536-0.768 3.072-1.536 4.608-0.512 1.536-1.28 3.072-2.304 4.608l-3.072 3.84-3.84 3.072c-1.536 1.024-3.072 1.792-4.608 2.304-1.536 0.768-3.072 1.28-4.608 1.536-1.792 0.256-3.328 0.512-5.12 0.512h-59.648v76.8h59.648c1.792 0 3.328 0.256 5.12 0.512 1.536 0.256 3.072 0.768 4.608 1.536 1.536 0.512 3.072 1.28 4.608 2.304l3.84 3.072 3.072 3.84c1.024 1.536 1.792 3.072 2.304 4.608 0.768 1.536 1.28 3.072 1.536 4.608 0.256 1.792 0.512 3.328 0.512 5.12v129.536c0 1.024-0.256 2.304-0.512 3.584-0.256 1.536-0.768 3.072-1.536 4.608-0.512 1.536-1.28 3.072-2.304 4.608l-3.072 3.84-3.84 3.072c-1.536 1.024-3.072 1.792-4.608 2.304-1.536 0.768-3.072 1.28-4.608 1.536-1.792 0.256-3.328 0.512-5.12 0.512h-85.248c-1.792 0-3.328-0.256-5.12-0.512a17.8432 17.8432 0 0 1-4.864-1.536 17.92 17.92 0 0 1-4.352-2.304l-3.84-3.072a20.1984 20.1984 0 0 1-3.072-3.84 41.216 41.216 0 0 1-2.56-4.608c-0.512-1.536-1.024-3.072-1.28-4.608-0.512-1.792-0.512-3.328-0.512-5.12s0-3.328 0.512-5.12c0.256-1.536 0.768-3.072 1.28-4.608 0.768-1.536 1.536-3.072 2.56-4.608 0.768-1.28 1.792-2.56 3.072-3.84l3.84-3.072a17.92 17.92 0 0 1 4.352-2.304c1.536-0.768 3.328-1.28 4.864-1.536 1.792-0.256 3.328-0.512 5.12-0.512h59.648v-76.8h-59.648c-1.792 0-3.328-0.256-5.12-0.512-0.512 0-1.024-0.256-1.536-0.256-1.28-0.512-2.304-0.768-3.328-1.28-1.024-0.256-1.792-0.768-2.816-1.28-0.512-0.256-1.024-0.768-1.536-1.024l-3.84-3.072-0.256-0.256c-1.024-1.024-1.792-2.304-2.56-3.328l-0.256-0.256a10.4192 10.4192 0 0 1-1.536-2.816c-0.512-0.768-0.768-1.28-1.024-1.792 0-0.512-0.256-1.024-0.512-1.792-0.256-0.768-0.512-1.792-0.768-2.816v-0.512c-0.256-1.024-0.512-1.792-0.512-2.816v-131.584c0-1.024 0.256-1.792 0.512-2.816v-0.512c0.256-1.024 0.512-2.048 0.768-2.816 0.256-0.768 0.512-1.28 0.512-1.792 0.256-0.512 0.512-1.024 1.024-1.792 0.256-0.768 0.768-1.792 1.536-2.816l0.256-0.256c0.768-1.024 1.536-2.304 2.56-3.328l0.256-0.256 3.84-3.072z m-268.8 124.416v-76.8h-34.048v76.8z" p-id="11523" fill="#555555"></path></svg>